name ./resultDataOpenSim/trcMotMarkerGrf/sub06/grf-01-06.mot
datacolumns 19
datarows 30
range 0.50000000 0.61600000
endheader

                time	     ground_force_vx	     ground_force_vy	     ground_force_vz	     ground_force_px	     ground_force_py	     ground_force_pz	   l_ground_force_vx	   l_ground_force_vy	   l_ground_force_vz	   l_ground_force_px	   l_ground_force_py	   l_ground_force_pz	     ground_torque_x	     ground_torque_y	     ground_torque_z	   l_ground_torque_x	   l_ground_torque_y	   l_ground_torque_z	
          0.50000000	         37.71891465	        386.98682227	        -20.11574857	         -0.74126760	          0.00000000	          0.09315001	          0.00000000	          0.00000000	          0.00000000	          0.00000000	          0.00000000	          0.00000000	          0.00000000	          3.25910565	          0.00000000	          0.00000000	          0.00000000	          0.00000000	
          0.50400000	         41.35583045	        400.21417341	        -20.86829995	         -0.73930634	          0.00000000	          0.09356818	          0.00000000	          0.00000000	          0.00000000	          0.00000000	          0.00000000	          0.00000000	          0.00000000	          3.34233215	          0.00000000	          0.00000000	          0.00000000	          0.00000000	
          0.50800000	         45.03240410	        414.39141446	        -21.68030868	         -0.73731649	          0.00000000	          0.09398872	          0.00000000	          0.00000000	          0.00000000	          0.00000000	          0.00000000	          0.00000000	          0.00000000	          3.42509781	          0.00000000	          0.00000000	          0.00000000	          0.00000000	
          0.51200000	         48.43548452	        429.63618030	        -22.67727090	         -0.73525264	          0.00000000	          0.09440146	          0.00000000	          0.00000000	          0.00000000	          0.00000000	          0.00000000	          0.00000000	          0.00000000	          3.49873811	          0.00000000	          0.00000000	          0.00000000	          0.00000000	
          0.51600000	         51.36200807	        446.04228047	        -23.98684558	         -0.73309699	          0.00000000	          0.09479457	          0.00000000	          0.00000000	          0.00000000	          0.00000000	          0.00000000	          0.00000000	          0.00000000	          3.55105393	          0.00000000	          0.00000000	          0.00000000	          0.00000000	
          0.52000000	         53.75973024	        463.66488948	        -25.70673716	         -0.73087484	          0.00000000	          0.09515343	          0.00000000	          0.00000000	          0.00000000	          0.00000000	          0.00000000	          0.00000000	          0.00000000	          3.56854994	          0.00000000	          0.00000000	          0.00000000	          0.00000000	
          0.52400000	         55.73242586	        482.50309187	        -27.87502831	         -0.72863046	          0.00000000	          0.09546959	          0.00000000	          0.00000000	          0.00000000	          0.00000000	          0.00000000	          0.00000000	          0.00000000	          3.53962074	          0.00000000	          0.00000000	          0.00000000	          0.00000000	
          0.52800000	         57.51208688	        502.48731229	        -30.45110345	         -0.72641815	          0.00000000	          0.09573483	          0.00000000	          0.00000000	          0.00000000	          0.00000000	          0.00000000	          0.00000000	          0.00000000	          3.45797790	          0.00000000	          0.00000000	          0.00000000	          0.00000000	
          0.53200000	         59.40133362	        523.48822715	        -33.31526228	         -0.72429435	          0.00000000	          0.09594207	          0.00000000	          0.00000000	          0.00000000	          0.00000000	          0.00000000	          0.00000000	          0.00000000	          3.32541569	          0.00000000	          0.00000000	          0.00000000	          0.00000000	
          0.53600000	         61.69903054	        545.33712643	        -36.28642126	         -0.72230423	          0.00000000	          0.09608517	          0.00000000	          0.00000000	          0.00000000	          0.00000000	          0.00000000	          0.00000000	          0.00000000	          3.15306682	          0.00000000	          0.00000000	          0.00000000	          0.00000000	
          0.54000000	         64.63185406	        567.83615621	        -39.14949614	         -0.72047717	          0.00000000	          0.09615691	          0.00000000	          0.00000000	          0.00000000	          0.00000000	          0.00000000	          0.00000000	          0.00000000	          2.96063842	          0.00000000	          0.00000000	          0.00000000	          0.00000000	
          0.54400000	         68.31277958	        590.75356906	        -41.68556866	         -0.71882651	          0.00000000	          0.09615266	          0.00000000	          0.00000000	          0.00000000	          0.00000000	          0.00000000	          0.00000000	          0.00000000	          2.77364628	          0.00000000	          0.00000000	          0.00000000	          0.00000000	
          0.54800000	         72.73622548	        613.82018669	        -43.70240271	         -0.71735574	          0.00000000	          0.09606889	          0.00000000	          0.00000000	          0.00000000	          0.00000000	          0.00000000	          0.00000000	          0.00000000	          2.61920549	          0.00000000	          0.00000000	          0.00000000	          0.00000000	
          0.55200000	         77.80643737	        636.74177581	        -45.06225924	         -0.71605595	          0.00000000	          0.09590250	          0.00000000	          0.00000000	          0.00000000	          0.00000000	          0.00000000	          0.00000000	          0.00000000	          2.52131214	          0.00000000	          0.00000000	          0.00000000	          0.00000000	
          0.55600000	         83.38507388	        659.22562118	        -45.70114485	         -0.71490919	          0.00000000	          0.09565462	          0.00000000	          0.00000000	          0.00000000	          0.00000000	          0.00000000	          0.00000000	          0.00000000	          2.49666156	          0.00000000	          0.00000000	          0.00000000	          0.00000000	
          0.56000000	         89.33933925	        681.01442124	        -45.63512391	         -0.71389310	          0.00000000	          0.09533422	          0.00000000	          0.00000000	          0.00000000	          0.00000000	          0.00000000	          0.00000000	          0.00000000	          2.55189296	          0.00000000	          0.00000000	          0.00000000	          0.00000000	
          0.56400000	         95.57604787	        701.91673666	        -44.95435734	         -0.71298184	          0.00000000	          0.09495549	          0.00000000	          0.00000000	          0.00000000	          0.00000000	          0.00000000	          0.00000000	          0.00000000	          2.68280964	          0.00000000	          0.00000000	          0.00000000	          0.00000000	
          0.56800000	        102.05447187	        721.81671139	        -43.80668909	         -0.71215272	          0.00000000	          0.09453275	          0.00000000	          0.00000000	          0.00000000	          0.00000000	          0.00000000	          0.00000000	          0.00000000	          2.87568971	          0.00000000	          0.00000000	          0.00000000	          0.00000000	
          0.57200000	        108.77762686	        740.65365270	        -42.37106750	         -0.71138967	          0.00000000	          0.09408224	          0.00000000	          0.00000000	          0.00000000	          0.00000000	          0.00000000	          0.00000000	          0.00000000	          3.11034111	          0.00000000	          0.00000000	          0.00000000	          0.00000000	
          0.57600000	        115.77023092	        758.37962371	        -40.82563831	         -0.71068550	          0.00000000	          0.09362273	          0.00000000	          0.00000000	          0.00000000	          0.00000000	          0.00000000	          0.00000000	          0.00000000	          3.36414653	          0.00000000	          0.00000000	          0.00000000	          0.00000000	
          0.58000000	        123.05436513	        774.91717121	        -39.32084914	         -0.71003900	          0.00000000	          0.09316966	          0.00000000	          0.00000000	          0.00000000	          0.00000000	          0.00000000	          0.00000000	          0.00000000	          3.61611474	          0.00000000	          0.00000000	          0.00000000	          0.00000000	
          0.58400000	        130.62907468	        790.14085690	        -37.96379123	         -0.70944755	          0.00000000	          0.09273010	          0.00000000	          0.00000000	          0.00000000	          0.00000000	          0.00000000	          0.00000000	          0.00000000	          3.85000668	          0.00000000	          0.00000000	          0.00000000	          0.00000000	
          0.58800000	        138.46009443	        803.88552497	        -36.81090946	         -0.70890395	          0.00000000	          0.09230699	          0.00000000	          0.00000000	          0.00000000	          0.00000000	          0.00000000	          0.00000000	          0.00000000	          4.05591846	          0.00000000	          0.00000000	          0.00000000	          0.00000000	
          0.59200000	        146.48383976	        815.95863020	        -35.86631212	         -0.70839540	          0.00000000	          0.09190267	          0.00000000	          0.00000000	          0.00000000	          0.00000000	          0.00000000	          0.00000000	          0.00000000	          4.23015513	          0.00000000	          0.00000000	          0.00000000	          0.00000000	
          0.59600000	        154.61792145	        826.14203618	        -35.09003353	         -0.70790451	          0.00000000	          0.09152488	          0.00000000	          0.00000000	          0.00000000	          0.00000000	          0.00000000	          0.00000000	          0.00000000	          4.37368028	          0.00000000	          0.00000000	          0.00000000	          0.00000000	
          0.60000000	        162.76845037	        834.19727412	        -34.41776683	         -0.70741394	          0.00000000	          0.09118317	          0.00000000	          0.00000000	          0.00000000	          0.00000000	          0.00000000	          0.00000000	          0.00000000	          4.48975316	          0.00000000	          0.00000000	          0.00000000	          0.00000000	
          0.60400000	        170.83605571	        839.89061092	        -33.78515696	         -0.70691004	          0.00000000	          0.09088496	          0.00000000	          0.00000000	          0.00000000	          0.00000000	          0.00000000	          0.00000000	          0.00000000	          4.58145975	          0.00000000	          0.00000000	          0.00000000	          0.00000000	
          0.60800000	        178.72535693	        843.02752577	        -33.14855542	         -0.70639168	          0.00000000	          0.09062683	          0.00000000	          0.00000000	          0.00000000	          0.00000000	          0.00000000	          0.00000000	          0.00000000	          4.64971294	          0.00000000	          0.00000000	          0.00000000	          0.00000000	
          0.61200000	        186.35511556	        843.47126300	        -32.49620489	         -0.70585926	          0.00000000	          0.09040148	          0.00000000	          0.00000000	          0.00000000	          0.00000000	          0.00000000	          0.00000000	          0.00000000	          4.69207378	          0.00000000	          0.00000000	          0.00000000	          0.00000000	
          0.61600000	        193.66215181	        841.14179636	        -31.84768839	         -0.70530805	          0.00000000	          0.09020030	          0.00000000	          0.00000000	          0.00000000	          0.00000000	          0.00000000	          0.00000000	          0.00000000	          4.70254717	          0.00000000	          0.00000000	          0.00000000	          0.00000000	
